<svg xmlns="http://www.w3.org/2000/svg" viewBox="0 0 24 24" width="36" height="36" fill="none" stroke="#040404" stroke-width="1" stroke-linecap="round" stroke-linejoin="round">&lt;!--!  Atomicons Free 1.00 by @atisalab License - https://atomicons.com/license/ (Icons: CC BY 4.0) Copyright 2021 Atomicons --&gt;<path d="M8.61,7.61l-5.1,5.1a5.52,5.52,0,0,0,0,7.78h0a5.52,5.52,0,0,0,7.78,0l5.1-5.1Z"></path><path d="M3.51,20.49h0a5.5,5.5,0,0,1,0-7.78l4.6-4.6,4.6-4.6a5.5,5.5,0,0,1,7.78,0h0a5.5,5.5,0,0,1,0,7.78l-4.6,4.6-4.6,4.6a5.5,5.5,0,0,1-7.78,0Z"></path></svg>